<?xml version="1.0" ?><svg style="enable-background:new 0 0 64 64;" version="1.1" viewBox="0 0 64 64" xml:space="preserve" xmlns="http://www.w3.org/2000/svg" xmlns:xlink="http://www.w3.org/1999/xlink"><style type="text/css">
	.st0{fill:#4267B2;}
	.st1{fill:url(#SVGID_1_);}
	.st2{fill:#FFFFFF;}
	.st3{fill:#C2191E;}
	.st4{fill:#1DA1F3;}
	.st5{fill:#FEFE00;}
	.st6{fill:#25D366;stroke:#FFFFFF;stroke-width:5;stroke-miterlimit:10;}
	.st7{fill:#CB2027;}
	.st8{fill:#0077B5;}
	.st9{fill:url(#SVGID_2_);}
	.st10{fill:url(#SVGID_3_);}
	.st11{fill:#FF004F;}
	.st12{fill:#00F7EF;}
	.st13{fill:#5181B8;}
	.st14{fill:#395976;}
	.st15{fill:#F58220;}
	.st16{fill:#E6162D;}
	.st17{fill:#FF9933;}
</style><g id="guidlines"/><g id="FB"/><g id="ig"/><g id="yt"/><g id="twitter"><path class="st4" d="M59.5,15.8c-0.8,0.6-1.6,1.1-2.5,1.6c0.1,0.8,0.1,1.7,0.1,2.6c0,11.6-5,22.1-12.9,29.4   c-6.2,4.6-13.9,7.3-22.3,7.3c-7.3,0-14.1-2.1-19.9-5.7c1.2,0.2,2.4,0.3,3.7,0.3c5.8,0,11.1-2,15.3-5.3c-5.4-0.1-10-3.7-11.6-8.7   c0.7,0.1,1.5,0.2,2.3,0.2c1.1,0,2.1-0.1,3.1-0.4c-2.3-0.5-4.3-1.7-5.9-3.3c-2.3-2.2-3.7-5.4-3.7-8.8c0-0.1,0-0.1,0-0.2   c1.5,0.8,3.1,1.3,4.9,1.5c-1.8-1.4-3.3-3.3-4.1-5.5c-0.5-1.4-0.8-2.9-0.8-4.4c0-0.6,0-1.3,0.1-1.9c0.3-1.7,0.9-3.3,1.7-4.6   c0.9,1,1.9,2,3,3c0.5,0.5,1.1,0.9,1.6,1.4c3.1,2.5,6.6,4.5,10.3,6c0.5,0.2,0.9,0.4,1.4,0.5c1.7,0.6,3.4,1.1,5.2,1.4   c0.4,0.1,0.8,0.2,1.2,0.2c0.2,0,0.3,0.1,0.5,0.1c0.8,0.1,1.5,0.2,2.3,0.3c-0.2-0.9-0.4-1.9-0.4-3c0-4.2,2.1-7.9,5.3-10.1   c0.2-0.2,0.4-0.3,0.7-0.4c0,0,0.1,0,0.1,0.1c0,0,0-0.1,0-0.1c1.9-1.1,4-1.8,6.4-1.8c3.6,0,6.8,1.5,9.1,4c0.8-0.2,1.7-0.4,2.5-0.6   c0.9-0.3,1.7-0.5,2.5-0.9c1-0.4,1.9-0.9,2.8-1.4c-0.5,1.5-1.3,2.9-2.3,4.1c-0.7,0.8-1.5,1.5-2.3,2.2c-0.2,0.1-0.4,0.3-0.6,0.4   c-0.1,0-0.1,0-0.2,0c0,0,0,0,0,0.1c0,0,0.1-0.1,0.1-0.1c0.2,0,0.4-0.1,0.7-0.1c0.9-0.1,1.7-0.3,2.6-0.5c0.9-0.2,1.8-0.5,2.6-0.8   C61.2,14.5,60.3,15.1,59.5,15.8z"/></g><g id="snapchat"/><g id="WA"/><g id="Pinterrest"/><g id="Layer_9"/><g id="Layer_10"/><g id="Layer_11"/><g id="Layer_12"/><g id="Layer_13"/><g id="Layer_14"/><g id="Layer_15"/><g id="Layer_16"/><g id="Layer_17"/></svg>